# xmcd
# 
# Track frame offsets:
#     150
#     30858
#     53729
#     75675
#     101625
#     117961
#     128884
#     145546
# 
# Disc length: 2198
# 
# Revision: 0
# Processed by: cddbd v1.5.2PL0 Copyright (c) Steve Scherf et al.
# Submitted via: fre:ac v1.0.17
# 
DISCID=5c089408
DTITLE=SYK - I-OPTIKON
DYEAR=2016
DGENRE=Metal
TTITLE0=I-OPTIKON
TTITLE1=SINOMI
TTITLE2=DISINTEGRATE
TTITLE3=MUD
TTITLE4=FLESHWORMS
TTITLE5=FONG
TTITLE6=ABSENSE
TTITLE7=THE WHITE SUN
EXTD=
EXTT0=
EXTT1=
EXTT2=
EXTT3=
EXTT4=
EXTT5=
EXTT6=
EXTT7=
PLAYORDER=
